<svg
   xmlns:dc="http://purl.org/dc/elements/1.1/"
   xmlns:cc="http://creativecommons.org/ns#"
   xmlns:rdf="http://www.w3.org/1999/02/22-rdf-syntax-ns#"
   xmlns:svg="http://www.w3.org/2000/svg"
   xmlns="http://www.w3.org/2000/svg"
   xmlns:sodipodi="http://sodipodi.sourceforge.net/DTD/sodipodi-0.dtd"
   xmlns:inkscape="http://www.inkscape.org/namespaces/inkscape"
   width="126.88334mm"
   height="25mm"
   viewBox="0 0 126.88334 20"
   version="1.1"
   id="svg8"
   inkscape:version="1.0.2 (e86c870879, 2021-01-15)"
   sodipodi:docname="8thnotes.svg">
  <defs
     id="defs2" />
  <metadata
     id="metadata5">
    <rdf:RDF>
      <cc:Work
         rdf:about="">
        <dc:format>image/svg+xml</dc:format>
        <dc:type
           rdf:resource="http://purl.org/dc/dcmitype/StillImage" />
        <dc:title></dc:title>
      </cc:Work>
    </rdf:RDF>
  </metadata>

  <g id="svgStrokeText">
    <text x="11"    y="19" style="fill:#000000;font: 6px sans-serif"></text>
    <text x="25.3"  y="19" style="fill:#000000;font: 6px sans-serif"></text>
    <text x="39.6"  y="19" style="fill:#000000;font: 6px sans-serif"></text>
    <text x="53.9"  y="19" style="fill:#000000;font: 6px sans-serif"></text>
    <text x="68.2"  y="19" style="fill:#000000;font: 6px sans-serif"></text>
    <text x="82.5"  y="19" style="fill:#000000;font: 6px sans-serif"></text>
    <text x="96.8"  y="19" style="fill:#000000;font: 6px sans-serif"></text>
    <text x="111.1" y="19" style="fill:#000000;font: 6px sans-serif"></text>
  </g>

  <g id="layer2" transform="translate(-3.1646448,-2.3332157)">
    <path
       style="fill:#000000;stroke-width:0.0846667"
       d="m 4.1646448,13.28155 v -6.223 h 0.211667 0.211666 v 3.048 3.048 h 4.8390572 4.839056 l 0.442613,-0.489104 c 0.607332,-0.671123 1.173186,-0.966928 1.944339,-1.016417 0.454405,-0.02916 0.670869,-0.0042 0.873521,0.10055 l 0.269413,0.139319 V 7.611057 3.3332157 H 39.428309 61.060641 V 8.243883 13.15455 h 5.220057 5.220056 l 0.442613,-0.489104 c 0.607331,-0.671123 1.173186,-0.966928 1.944338,-1.016417 0.454405,-0.02916 0.67087,-0.0042 0.873521,0.10055 l 0.269414,0.139319 V 7.611057 3.3332157 H 96.662981 118.29532 V 8.243883 13.15455 h 5.16466 5.16467 v -3.048 -3.048 h 0.21167 0.21166 v 6.223 6.222999 h -0.21166 -0.21167 v -3.047999 -3.048 h -5.23808 -5.23808 l -0.22405,0.338546 c -0.5684,0.858918 -2.06003,1.414634 -2.87034,1.069365 -0.4732,-0.201629 -0.68601,-0.507558 -0.68601,-0.986199 V 13.40855 h -5.26414 -5.26413 l -0.22404,0.338546 c -0.5684,0.858918 -2.06004,1.414634 -2.87035,1.069365 -0.4732,-0.201629 -0.68601,-0.507558 -0.68601,-0.986199 V 13.40855 h -5.264129 -5.264136 l -0.22405,0.338546 c -0.5684,0.858918 -2.06003,1.414634 -2.87034,1.069365 -0.4732,-0.201629 -0.68601,-0.507558 -0.68601,-0.986199 V 13.40855 h -5.264147 -5.264133 l -0.22404,0.338546 c -0.568404,0.858918 -2.060036,1.414634 -2.870348,1.069365 -0.473203,-0.201629 -0.686011,-0.507558 -0.686011,-0.986199 V 13.40855 H 66.177943 60.913809 L 60.68977,13.747096 C 60.121365,14.606014 58.629733,15.16173 57.819422,14.816461 57.346218,14.614832 57.13341,14.308903 57.13341,13.830262 V 13.40855 h -5.264133 -5.264133 l -0.22404,0.338546 c -0.568405,0.858918 -2.060036,1.414634 -2.870348,1.069365 -0.473204,-0.201629 -0.686012,-0.507558 -0.686012,-0.986199 V 13.40855 h -5.264132 -5.264134 l -0.22404,0.338546 c -0.568404,0.858918 -2.060036,1.414634 -2.870348,1.069365 -0.473203,-0.201629 -0.686011,-0.507558 -0.686011,-0.986199 V 13.40855 h -5.264133 -5.264133 l -0.22404,0.338546 c -0.568405,0.858918 -2.060037,1.414634 -2.870348,1.069365 -0.473204,-0.201629 -0.686012,-0.507558 -0.686012,-0.986199 V 13.40855 H 9.397696 4.5879778 v 3.048 3.047999 H 4.3763118 4.1646448 Z M 29.01737,12.665446 c 0.607331,-0.671123 1.173186,-0.966928 1.944338,-1.016417 0.454405,-0.02916 0.67087,-0.0042 0.873521,0.10055 l 0.269414,0.139319 V 8.373057 4.857216 h -6.985 -6.984999 v 4.148667 4.148667 h 5.220057 5.220056 z m 14.308665,0 c 0.607332,-0.671123 1.173186,-0.966928 1.944339,-1.016417 0.454405,-0.02916 0.67087,-0.0042 0.873521,0.10055 l 0.269414,0.139319 V 8.373057 4.857216 h -6.985 -6.984999 v 4.148667 4.148667 h 5.220057 5.220056 z m 14.308666,0 c 0.607332,-0.671123 1.173186,-0.966928 1.944339,-1.016417 0.454405,-0.02916 0.670869,-0.0042 0.873521,0.10055 l 0.269413,0.139319 V 8.373057 4.857216 h -6.984999 -6.985 v 4.148667 4.148667 h 5.220057 5.220056 z m 28.617334,0 c 0.60734,-0.671123 1.17319,-0.966928 1.94435,-1.016417 0.4544,-0.02916 0.67086,-0.0042 0.87351,0.10055 l 0.26942,0.139319 V 8.373057 4.857216 h -6.985007 -6.985002 v 4.148667 4.148667 h 5.220052 5.220067 z m 14.308675,0 c 0.60734,-0.671123 1.17319,-0.966928 1.94434,-1.016417 0.45441,-0.02916 0.67087,-0.0042 0.87352,0.10055 l 0.26941,0.139319 V 8.373057 4.857216 h -6.984999 -6.984996 v 4.148667 4.148667 h 5.220056 5.220059 z m 14.30866,0 c 0.60734,-0.671123 1.1732,-0.966928 1.94435,-1.016417 0.4544,-0.02916 0.67086,-0.0042 0.87351,0.10055 l 0.26942,0.139319 V 8.373057 4.857216 h -6.985 -6.985 v 4.148667 4.148667 h 5.22006 5.22005 z"
       id="path977" />
  </g>
</svg>
